<svg xmlns="http://www.w3.org/2000/svg" viewBox="0 0 96.67 100">
  <defs>
    <style>
      .cls-1 {
        fill: #231f20;
      }

      .cls-2 {
        fill: #faaf40;
      }

      .cls-3 {
        fill: #fefefe;
      }

      .cls-4 {
        fill: #241f20;
      }

      .cls-5 {
        fill: #242021;
      }
    </style>
  </defs>
  <title>bee-logo (2)</title>
  <g id="Слой_2" data-name="Слой 2">
    <g id="logo-bee-text">
      <g id="bee-logo">
        <path class="cls-1" d="M94.21,49a11.91,11.91,0,0,0-3-1c-5.56-1-11.06-1.11-16.36,1.23-.84.37-1.17.31-1.15-.72a15.47,15.47,0,0,1,.17-3.26,24.43,24.43,0,0,0-.65-13A25.54,25.54,0,0,0,58.71,16.25a1.74,1.74,0,0,1-1.24-2c.08-1.81.09-3.63,0-5.44,0-1.15.1-1.66,1.49-1.6a3.48,3.48,0,0,0,3.38-3.91A3.64,3.64,0,0,0,58.18.05c-2,.32-3.19,1.73-3.21,4,0,3.58,0,7.15,0,10.86a26.75,26.75,0,0,0-12.35-.3c-.77.14-.81-.21-.81-.8,0-3.08,0-6.16,0-9.23a7,7,0,0,0-.24-2,3.64,3.64,0,0,0-7.08.45A3.5,3.5,0,0,0,38,7.27c1.1,0,1.34.31,1.28,1.34a32.74,32.74,0,0,0,0,5.05c.16,1.62-.48,2.35-1.92,3C29.93,19.87,25.46,25.82,23,33.34c-1.56,4.78-1.06,9.66.07,14.49.32,1.37.3,1.35-1,1.1-3.42-.63-6.79-1.63-10.34-1.5-3.17.12-6.31.33-9.24,1.64A3.79,3.79,0,0,0,.05,53.46,22.9,22.9,0,0,0,3,61.6c3.4,6.3,8.28,10.67,15.66,11.63,3.2.42,6.3-.24,9.4-.82.71-.13,1,0,1.11.69a6,6,0,0,1-.16,3c-1.76,6.61.73,11.85,6.92,14.56a23.09,23.09,0,0,0,5.81,1.65,4.67,4.67,0,0,1,2.9,1.6,29,29,0,0,1,3.7,6.12A26.76,26.76,0,0,1,52,94a4.62,4.62,0,0,1,2.72-1.68c1.44-.32,2.88-.62,4.29-1,5.61-1.71,10-5.56,9.1-13.06-.14-1.16-.5-2.3-.7-3.46-.42-2.54-.4-2.54,2.11-2.16.29.05.58.1.87.17a21.19,21.19,0,0,0,11-.24c5.45-1.66,9.15-5.34,11.92-10.11,1.64-2.84,3.12-5.78,3.35-9.16A3.72,3.72,0,0,0,94.21,49ZM27.89,36.5c1.63-10.84,11.76-17.29,20.27-17.27A20.83,20.83,0,0,1,69,37.62c.09.88-.11,1.16-1,1.05a2.66,2.66,0,0,0-.63,0c-1.21.2-1.84-.2-2.3-1.45a8.12,8.12,0,0,0-7.69-5.34,8.3,8.3,0,0,0-7.76,5.65c-.21.56-.22,1.18-1.16,1.18s-1.19-.51-1.47-1.22c-2.12-5.38-8.07-7.27-12.62-4a7.18,7.18,0,0,0-2.89,3.88,1.54,1.54,0,0,1-1.87,1.33C27.53,38.61,27.56,38.67,27.89,36.5Zm35,3.62a5.38,5.38,0,1,1-5.39-5.39A5.41,5.41,0,0,1,62.85,40.12Zm-18.21,0a5.32,5.32,0,0,1-5.35,5.4,5.38,5.38,0,0,1-5.41-5.35,5.44,5.44,0,0,1,5.37-5.42A5.38,5.38,0,0,1,44.64,40.1ZM26.26,68.37c-4.91,1.34-9.76,1.24-14.16-1.82a18.92,18.92,0,0,1-6.72-9.24,24.93,24.93,0,0,1-.91-3A1.64,1.64,0,0,1,6,52.13a20.08,20.08,0,0,1,5.54-.6,18.88,18.88,0,0,1,12.93,4.39c2.26,1.94,3.43,4.64,4.27,7.46.06.2.12.4.17.61C29.72,68,30.23,67.29,26.26,68.37ZM59.91,85.51a21,21,0,0,1-7.86,2.15A30.48,30.48,0,0,1,39,86.45c-2.46-.82-4.66-2-5.33-4.86a10.61,10.61,0,0,1-.1-2.64c0-.88.36-1,1.1-.68a40.59,40.59,0,0,0,8.4,2.2,37.14,37.14,0,0,0,18-1.82L63,78C63.9,81.3,62.82,83.93,59.91,85.51ZM36.85,70.39c.78-1,1.48-2.15,2.15-3.27.32-.54.63-.61,1.22-.44a27.58,27.58,0,0,0,16.29,0,.9.9,0,0,1,1.24.42c.7,1.16,1.42,2.3,2.22,3.38.57.78.36,1.17-.42,1.55A21,21,0,0,1,53,73.82a25.21,25.21,0,0,1-4.12.3c-4.4-.08-8.06-.44-11.51-2.05C36.48,71.65,36.2,71.27,36.85,70.39ZM57.59,58.77A18,18,0,0,1,48.36,61,20.71,20.71,0,0,1,27.83,43.29c-.08-.54-.67-1.4.32-1.71,1.51-.48,2.9,0,3.27,1a8.22,8.22,0,0,0,15.72-.18,1,1,0,0,1,1.15-.9c.66,0,1.15.13,1.32.86a8.17,8.17,0,0,0,7.73,6c3.72,0,6.67-2.12,8-5.94.3-.87.85-.9,1.55-.89,2.9,0,2.34-.23,1.92,2.28C67.68,50.7,63.76,55.63,57.59,58.77Zm26.56,8.07A15.34,15.34,0,0,1,73,68.94a16.44,16.44,0,0,1-5-1.26c-.44-.22-.83-.39-.72-1C68.3,61,70.38,56,76,53.41a27.52,27.52,0,0,1,11.21-2.15,34.74,34.74,0,0,1,4.39.22c.64.1.85.34.8,1A18.23,18.23,0,0,1,84.15,66.84Z"/>
        <path class="cls-2" d="M29.67,38.69a1.54,1.54,0,0,0,1.87-1.33,7.18,7.18,0,0,1,2.89-3.88c4.55-3.26,10.5-1.37,12.62,4,.28.71.52,1.22,1.47,1.22s.95-.62,1.16-1.18a8.3,8.3,0,0,1,7.76-5.65,8.12,8.12,0,0,1,7.69,5.34c.46,1.25,1.09,1.65,2.3,1.45a2.66,2.66,0,0,1,.63,0c.84.11,1-.17,1-1.05A20.83,20.83,0,0,0,48.16,19.23c-8.51,0-18.64,6.43-20.27,17.27C27.56,38.67,27.53,38.61,29.67,38.69Z"/>
        <path class="cls-2" d="M66.92,41.54c-.7,0-1.25,0-1.55.89-1.36,3.82-4.31,6-8,5.94a8.17,8.17,0,0,1-7.73-6c-.17-.73-.66-.87-1.32-.86a1,1,0,0,0-1.15.9,8.22,8.22,0,0,1-15.72.18c-.37-1-1.76-1.52-3.27-1-1,.31-.4,1.17-.32,1.71A20.71,20.71,0,0,0,48.36,61a18,18,0,0,0,9.23-2.2c6.17-3.14,10.09-8.07,11.25-15C69.26,41.31,69.82,41.58,66.92,41.54ZM52.65,54.8a8.81,8.81,0,0,1-4.29.8,9.14,9.14,0,0,1-4.19-.76c-.72-.28-1.34-.7-1-1.59s1.07-.82,1.71-.57a9.59,9.59,0,0,0,7,0c.69-.26,1.5-.27,1.79.64S53.28,54.54,52.65,54.8Z"/>
        <path class="cls-3" d="M91.55,51.48a34.74,34.74,0,0,0-4.39-.22A27.52,27.52,0,0,0,76,53.41C70.38,56,68.3,61,67.31,66.67c-.11.62.28.79.72,1a16.44,16.44,0,0,0,5,1.26,15.34,15.34,0,0,0,11.14-2.1,18.23,18.23,0,0,0,8.2-14.38C92.4,51.82,92.19,51.58,91.55,51.48Z"/>
        <path class="cls-3" d="M28.69,63.38c-.84-2.82-2-5.52-4.27-7.46a18.88,18.88,0,0,0-12.93-4.39,20.08,20.08,0,0,0-5.54.6,1.64,1.64,0,0,0-1.48,2.16,24.93,24.93,0,0,0,.91,3,18.92,18.92,0,0,0,6.72,9.24c4.4,3.06,9.25,3.16,14.16,1.82,4-1.08,3.46-.33,2.6-4.38C28.81,63.78,28.75,63.58,28.69,63.38Z"/>
        <path class="cls-2" d="M61.05,78.65a37.14,37.14,0,0,1-18,1.82,40.59,40.59,0,0,1-8.4-2.2c-.74-.28-1.1-.2-1.1.68a10.61,10.61,0,0,0,.1,2.64c.67,2.82,2.87,4,5.33,4.86a30.48,30.48,0,0,0,13.08,1.21,21,21,0,0,0,7.86-2.15c2.91-1.58,4-4.21,3-7.5Z"/>
        <path class="cls-2" d="M48.88,74.12a25.21,25.21,0,0,0,4.12-.3A21,21,0,0,0,59.55,72c.78-.38,1-.77.42-1.55-.8-1.08-1.52-2.22-2.22-3.38a.9.9,0,0,0-1.24-.42,27.58,27.58,0,0,1-16.29,0c-.59-.17-.9-.1-1.22.44-.67,1.12-1.37,2.22-2.15,3.27-.65.88-.37,1.26.52,1.68C40.82,73.68,44.48,74,48.88,74.12Z"/>
        <path class="cls-3" d="M33.88,40.15a5.38,5.38,0,0,0,5.41,5.35,5.39,5.39,0,0,0,0-10.77A5.44,5.44,0,0,0,33.88,40.15Zm8.73.24a3.23,3.23,0,0,1-3.3,3.09c-2.17,0-3.91-2-3.37-3.88.13-.44.2-.84.8-.37a1.31,1.31,0,0,0,1.73-.06,1.28,1.28,0,0,0,.31-1.61c-.41-1,.28-.88.79-.84A3.36,3.36,0,0,1,42.61,40.39Z"/>
        <path class="cls-3" d="M52.1,40.14a5.38,5.38,0,0,0,10.75,0,5.38,5.38,0,1,0-10.75,0Zm5.82-3.42a3.37,3.37,0,0,1,2.91,3.4,3.27,3.27,0,0,1-3,3.36,3.42,3.42,0,0,1-3.73-3.11c-.09-1,.27-1.3,1.22-1,1.22.39,2.13-.42,1.72-1.72C56.64,36.53,57.3,36.64,57.92,36.72Z"/>
        <path class="cls-4" d="M51.86,52.66a9.59,9.59,0,0,1-7,0c-.64-.25-1.42-.26-1.71.57s.31,1.31,1,1.59a9.14,9.14,0,0,0,4.19.76,8.81,8.81,0,0,0,4.29-.8c.63-.26,1.28-.66,1-1.5S52.55,52.4,51.86,52.66Z"/>
        <path class="cls-5" d="M38.78,37.56a1.28,1.28,0,0,1-.31,1.61,1.31,1.31,0,0,1-1.73.06c-.6-.47-.67-.07-.8.37-.54,1.86,1.2,3.88,3.37,3.88a3.23,3.23,0,0,0,3.3-3.09,3.36,3.36,0,0,0-3-3.67C39.06,36.68,38.37,36.58,38.78,37.56Z"/>
        <path class="cls-1" d="M57,37.66c.41,1.3-.5,2.11-1.72,1.72-1-.31-1.31,0-1.22,1a3.42,3.42,0,0,0,3.73,3.11,3.27,3.27,0,0,0,3-3.36,3.37,3.37,0,0,0-2.91-3.4C57.3,36.64,56.64,36.53,57,37.66Z"/>
      </g>
    </g>
  </g>
</svg>
