<svg xmlns="http://www.w3.org/2000/svg" viewBox="0 0 239.72 75.73"><defs><style>.cls-1{fill:#ff0700;}.cls-2{fill:#231f20;}.cls-3{fill:none;}.cls-4{fill:#1a1a1a;}.cls-5{font-size:16px;font-family:TrebuchetMS-Bold, Trebuchet MS;font-weight:700;}</style></defs><title>goodvard</title><g id="Слой_2" data-name="Слой 2"><g id="logo-bee-text"><g id="goodvard"><path class="cls-1" d="M34.09,24.77c0-1.58,0-3.15,0-4.73s-.67-2.14-2.15-2.1-3.15,0-4.72,0c-2.41,0-2.4,0-1.45,2.27a4.83,4.83,0,0,1,.26.92c.52,2.68.12,5.39.2,8.08,0,.6-.62.66-1.06.78a18.91,18.91,0,0,1-6.87.71A9.51,9.51,0,0,1,11.47,27c-4-5.29-4.34-11.1-1.23-16.94,2.79-5.25,8.8-6.85,14-4.5,2.58,1.16,4.16,3.29,5.47,5.66.28.5.49,1,1.17.83a11.43,11.43,0,0,0,2.84-3.58,1.32,1.32,0,0,0-.27-1.05,18.77,18.77,0,0,0-5.07-4.34A20.82,20.82,0,0,0,15.66.63,18.12,18.12,0,0,0,5.35,5.2,16.2,16.2,0,0,0,.18,20c.91,6.83,4.76,11.22,11,13.63a23.57,23.57,0,0,0,11.35,1.07A36.42,36.42,0,0,0,32.49,32a2.33,2.33,0,0,0,1.61-2.47C34.05,27.92,34.09,26.34,34.09,24.77Z"/><path class="cls-1" d="M113.18,34.9a12.11,12.11,0,0,0,6.6-2.49c1.08-.78,1.72-1,1.63.7,0,.84.35,1.15,1.17,1.14,2,0,3.91,0,5.86,0,.81,0,1.05-.37.59-1a7,7,0,0,1-1.11-4.58c0-8.95,0-17.91,0-26.87,0-1.46-.45-1.89-1.87-1.82-2.16.1-4.33,0-6.82,0a10,10,0,0,1,1.45,3.48,30.52,30.52,0,0,1,0,3.58c0,.93,0,1.85,0,2.77,0,.51.31,1.2-.24,1.48s-1.08-.25-1.56-.58a11.73,11.73,0,0,0-12.69-.26c-4.69,3.05-6.83,9.41-5.26,15.19S107.12,35.18,113.18,34.9Zm-2.73-20.17a5.69,5.69,0,0,1,7.77-.09c2.9,2.7,2.57,2.49,2.53,7.72a7.22,7.22,0,0,1-2,6.38,6.14,6.14,0,0,1-9-.51C107,24.72,107,17.93,110.45,14.73Z"/><path class="cls-2" d="M239.44,32.85a8,8,0,0,1-.75-3.86c0-9.06,0-18.13,0-27.2,0-.86.2-1.8-1.21-1.77-2.38.05-4.77,0-7.32,0,.41,1,.79,1.75,1,2.55.72,2.32.19,4.71.32,7.06,0,.57.31,1.37-.18,1.68s-1.15-.26-1.68-.61C226,8.26,220.45,8.17,217,10.46a14,14,0,0,0-5.25,15.25c1,3.65,3,6.66,6.62,8.21a11.77,11.77,0,0,0,12.25-1.61c1-.77,1.51-.54,1.5.63s.53,1.35,1.5,1.32c1.63,0,3.26-.06,4.88,0C239.77,34.31,240,33.85,239.44,32.85Zm-9.58-4.49c-2.73,3-7.9,2.93-10-1.06a10.79,10.79,0,0,1,0-10.86c2.51-4.47,7.81-4.26,10.66-.17,1,1.43,1,1.44,1,6.36A7.16,7.16,0,0,1,229.86,28.36Z"/><path class="cls-2" d="M188.52,28.29c0-2.71,0-5.42,0-8.14,0-3.09,0-6.18,0-9.28,0-1.06-.36-1.45-1.42-1.4-1.41.06-2.82,0-4.23,0-.67,0-1.16.09-1.23.92-.1,1.17-.61,1.35-1.57.62a11.13,11.13,0,0,0-8.25-2.16,10.42,10.42,0,0,0-7.12,3.61,14,14,0,0,0-3.23,11.79c.64,4,2.42,7.39,6.1,9.27a11.35,11.35,0,0,0,12.92-1.21c.81-.63,1.51-1,1.5.58,0,1,.65,1.37,1.61,1.35,1.74,0,3.47,0,5.21,0,1,0,1.23-.27.7-1.21A9.39,9.39,0,0,1,188.52,28.29Zm-6.81-7.23c-.07,2.92.08,4.93-1.46,6.73s-3.17,2.84-5.34,2.7a6.11,6.11,0,0,1-5.65-4.62c-1.06-3.45-1.12-6.86,1-10.06,2.36-3.57,7.27-3.29,9.82-.2A7.65,7.65,0,0,1,181.71,21.06Z"/><path class="cls-2" d="M210.89,9.16A9.15,9.15,0,0,0,206.45,9a7.61,7.61,0,0,0-3.58,1.9c-.53.43-1.68,1.5-1.64-.53,0-.71-.48-.87-1.1-.87-1.95,0-3.91,0-5.86,0-.85,0-1.13.25-.64,1a7.63,7.63,0,0,1,1.1,4.38c0,2.77,0,5.54,0,8.31,0,3.09.05,6.19,0,9.28,0,1.3.28,1.93,1.72,1.79a20.55,20.55,0,0,1,3.42,0c1.54.11,2.1-.52,2.08-2.07-.07-4.55,0-9.12,0-13.68a4.28,4.28,0,0,1,2.14-4,3.43,3.43,0,0,1,4.18.81c.63.63,1.17.54,1.49-.28.6-1.56,1.07-3.18,1.73-4.72C211.74,9.56,211.5,9.36,210.89,9.16Z"/><path class="cls-1" d="M97.28,20.16a11.76,11.76,0,0,0-3.88-7.81A13.75,13.75,0,0,0,83.23,8.84,13.67,13.67,0,0,0,77.05,10a12.78,12.78,0,0,0-7.51,14.06,12.27,12.27,0,0,0,5.14,8.28c3.93,2.76,8.29,3,12.84,2.08a12.08,12.08,0,0,0,6.41-3.61A13,13,0,0,0,97.28,20.16ZM87.14,29.61a5.57,5.57,0,0,1-8.36-.77,12.47,12.47,0,0,1,0-14c2.54-3.39,7.12-3.32,9.74.95,1.17,1.9,1.23,4,1.63,6C89.76,24.73,89.38,27.5,87.14,29.61Z"/><path class="cls-2" d="M157,9.44c-1.37-.06-1.78.5-2.17,1.65-1.63,4.81-3.34,9.59-5.06,14.37-.13.34-.16,1-.69.91s-.48-.57-.63-1c-1.48-4.09-3.23-8.09-4.44-12.25-.9-3.14-2.4-4.52-5.64-3.65-1,0-2.06,0-3.09,0-.37,0-.91-.3-1.1.32s.28.75.57,1.07A11.6,11.6,0,0,1,137.06,15c2.18,6.06,4.39,12.11,6.58,18.17a1.47,1.47,0,0,0,1.67,1.14,29.72,29.72,0,0,1,4.22,0,1.56,1.56,0,0,0,1.8-1.19c2.52-6.94,5-13.88,7.54-20.83C159.86,9.49,159.81,9.58,157,9.44Z"/><path class="cls-1" d="M53.07,8.8C43,8.5,38,14.87,38.08,21.93c.07,7.56,5.41,12.74,13.67,13S66.57,29.17,66,21.86C66.51,14.37,60.08,9,53.07,8.8Zm2.56,21.06a5.56,5.56,0,0,1-7.86-.79,11,11,0,0,1-2.27-7.32,9.4,9.4,0,0,1,2.38-7.22c2.55-2.76,6.32-3.23,9.18.91S59.54,26.42,55.63,29.86Z"/><path class="cls-3" d="M230.55,16.27c-2.85-4.09-8.15-4.3-10.66.17a10.79,10.79,0,0,0,0,10.86c2.09,4,7.26,4,10,1.06a7.16,7.16,0,0,0,1.67-5.73C231.53,17.71,231.55,17.7,230.55,16.27Z"/><path class="cls-3" d="M118.7,28.74a7.22,7.22,0,0,0,2-6.38c0-5.23.37-5-2.53-7.72a5.69,5.69,0,0,0-7.77.09c-3.49,3.2-3.43,10-.72,13.5A6.14,6.14,0,0,0,118.7,28.74Z"/><path class="cls-3" d="M78.81,14.88a12.47,12.47,0,0,0,0,14,5.57,5.57,0,0,0,8.36.77c2.24-2.11,2.62-4.88,3-7.75-.4-2-.46-4.13-1.63-6C85.93,11.56,81.35,11.49,78.81,14.88Z"/><path class="cls-3" d="M47.88,14.53a9.4,9.4,0,0,0-2.38,7.22,11,11,0,0,0,2.27,7.32,5.56,5.56,0,0,0,7.86.79c3.91-3.44,4.22-10.37,1.43-14.42S50.43,11.77,47.88,14.53Z"/><path class="cls-3" d="M170.26,15.81c-2.12,3.2-2.06,6.61-1,10.06a6.11,6.11,0,0,0,5.65,4.62c2.17.14,3.87-1,5.34-2.7s1.39-3.81,1.46-6.73a7.65,7.65,0,0,0-1.63-5.45C177.53,12.52,172.62,12.24,170.26,15.81Z"/><path class="cls-4" d="M144.86,47.22h-50a1.13,1.13,0,0,0,0,2.25h50a1.13,1.13,0,0,0,0-2.25Z"/><text id="logotext2" class="cls-5" transform="translate(16.25 71.42)">Студия английского языка</text></g></g></g></svg>